<svg id="flat" height="512" viewBox="0 0 512 512" width="512" xmlns="http://www.w3.org/2000/svg"><path d="m423.63855 144a17.40846 17.40846 0 0 1 -16.09522-10.75781l-.08825-.21314a17.4178 17.4178 0 0 1 3.76947-18.99872l22.88287-22.88317-45.25442-45.25483-22.88315 22.88312a17.41774 17.41774 0 0 1 -18.999 3.76947q-.10658-.04431-.21326-.08832a17.4085 17.4085 0 0 1 -10.75759-16.09515v-32.36145h-64v32.36145a17.4085 17.4085 0 0 1 -10.75763 16.09515q-.10666.044-.21326.08832a17.41774 17.41774 0 0 1 -18.999-3.76947l-22.88311-22.88312-45.25442 45.25483 22.88287 22.88317a17.4178 17.4178 0 0 1 3.76947 18.99872l-.08825.21314a17.40846 17.40846 0 0 1 -16.09522 10.75781h-32.36145v64h32.36145a17.40846 17.40846 0 0 1 16.09522 10.75781l.08825.21308a17.41774 17.41774 0 0 1 -3.76947 18.99871l-10.03021 10.0304h234.50952l-10.03021-10.0304a17.41774 17.41774 0 0 1 -3.76947-18.99871l.08825-.21308a17.40846 17.40846 0 0 1 16.09522-10.75781h32.36145v-64zm-119.63855 72a40 40 0 1 1 40-40 40 40 0 0 1 -40 40z" fill="#ef5e3b"/><path d="m304 264a87.63532 87.63532 0 0 1 -83.96973-61.603l15.26465-4.79394a72.01038 72.01038 0 1 0 120.12354-72.00342l11.42578-11.2002a88.00018 88.00018 0 0 1 -62.84424 149.60056z" fill="#e35430"/><path d="m136 248h176v208h-176z" fill="#f6bb00"/><path d="m24 376 80 16v80h-80z" fill="#548aff"/><path d="m104 400h22.05332a81.94183 81.94183 0 0 1 57.948 24.00655l31.99607-.00655a16 16 0 0 1 16.00261 16 16 16 0 0 1 -15.99736 16h-.00264l47.99972.00058a15.9997 15.9997 0 0 1 16.00028 15.9997 15.9997 15.9997 0 0 1 -15.99969 15.99972h-72.00031a119.99989 119.99989 0 0 1 -72-24h-16z" fill="#f5c99d"/><path d="m312 248h144v208h-144z" fill="#eda600"/><path d="m136 248-32 48h176l32-48z" fill="#fcd453"/><path d="m456 248 32 48h-144l-32-48z" fill="#fcd453"/><g fill="#de9400"><path d="m240 336h16v16h-16z"/><path d="m192 336h32v16h-32z"/><path d="m216 368h56v16h-56z"/><path d="m176 368h24v16h-24z"/></g><path d="m263.99951 448.00293-25.37671-.00024a23.99605 23.99605 0 0 0 -22.6228-32.00269h-.00391l-28.76855.00586a89.30282 89.30282 0 0 0 -61.17432-24.00586h-22.05322v16h22.05322a73.45635 73.45635 0 0 1 52.29053 21.6626 8.00149 8.00149 0 0 0 5.65771 2.34375h.00147l31.99607-.00635a8 8 0 1 1 -.00146 16c-.01172 0-.023.00256-.03473.00269l-23.96281-.00025v16l71.99951.00049a7.99976 7.99976 0 1 1 .001 15.99951h-72.00051a112.7024 112.7024 0 0 1 -67.2002-22.3999 7.99948 7.99948 0 0 0 -4.7998-1.6001h-16v16h13.38232a128.84653 128.84653 0 0 0 74.61768 24h72.00049a23.99976 23.99976 0 1 0 -.001-47.99951z" fill="#deae7e"/></svg>