<svg height="512pt" viewBox="0 0 512 512" width="512pt" xmlns="http://www.w3.org/2000/svg" xmlns:xlink="http://www.w3.org/1999/xlink"><linearGradient id="a" gradientUnits="userSpaceOnUse" x1="0" x2="512" y1="256" y2="256"><stop offset="0" stop-color="#00f1ff"/><stop offset=".231" stop-color="#00d8ff"/><stop offset=".5138" stop-color="#00c0ff"/><stop offset=".7773" stop-color="#00b2ff"/><stop offset="1" stop-color="#00adff"/></linearGradient><path d="m512 256c0 141.386719-114.613281 256-256 256s-256-114.613281-256-256 114.613281-256 256-256 256 114.613281 256 256zm0 0" fill="url(#a)"/><g fill="#fff"><path d="m252.425781 250.128906c1.1875.042969 2.375.070313 3.574219.070313 53.035156 0 96.183594-43.144531 96.183594-96.183594 0-53.035156-43.148438-96.183594-96.183594-96.183594s-96.1875 43.148438-96.1875 96.183594c0 30.796875 14.554688 58.261719 37.140625 75.878906-20.699219 7.050781-40.128906 17.78125-57.1875 31.8125-32.183594 26.472657-54.5625 63.394531-63.007813 103.972657-2.691406 12.9375.535157 26.230468 8.859376 36.464843 8.28125 10.183594 20.5625 16.023438 33.691406 16.023438h113.59375c8.285156 0 15-6.714844 15-15 0-8.28125-6.714844-15-15-15h-113.59375c-5.558594 0-8.914063-3.101563-10.417969-4.953125-2.601563-3.195313-3.605469-7.359375-2.761719-11.421875 14.441406-69.355469 75.640625-120.007813 146.296875-121.664063zm-62.609375-96.113281c0-36.492187 29.6875-66.183594 66.183594-66.183594s66.1875 29.691407 66.1875 66.183594c0 35.980469-28.863281 65.324219-64.648438 66.144531-.507812-.050781-1.019531-.074218-1.539062-.074218-1.078125 0-2.152344.015624-3.230469.03125-35-1.6875-62.953125-30.6875-62.953125-66.101563zm0 0"/><path d="m408.175781 279.695312v-8.800781c0-8.285156-6.71875-15-15-15-8.285156 0-15 6.714844-15 15v8.09375h-48.386719v-8.09375c0-8.285156-6.71875-15-15-15-8.285156 0-15 6.714844-15 15v8.800781c-15.953124 3.253907-27.996093 17.394532-27.996093 34.292969v59.179688c0 24.8125 20.1875 45 45 45h74.375c24.816406 0 45-20.1875 45-45v-59.179688c0-16.898437-12.039063-31.039062-27.992188-34.292969zm-17.007812 108.472657h-74.375c-8.269531 0-15-6.726563-15-15v-46.683594h104.375v46.683594c0 8.273437-6.726563 15-15 15zm0 0"/></g></svg>