<svg xmlns="http://www.w3.org/2000/svg" viewBox="0 0 359.89 378.76"><defs><style>.cls-1,.cls-2{fill:#fafbfc;}.cls-1,.cls-2,.cls-4,.cls-5,.cls-6,.cls-7{stroke:#192657;}.cls-1,.cls-6{stroke-linecap:round;stroke-linejoin:round;}.cls-1,.cls-2,.cls-4,.cls-6{stroke-width:3px;}.cls-2,.cls-4,.cls-5,.cls-7{stroke-miterlimit:10;}.cls-3,.cls-5,.cls-7{fill:#192657;}.cls-4,.cls-6{fill:none;}.cls-5{font-size:20.01px;}.cls-5,.cls-7{stroke-width:0.75px;font-family:AntipastoPro-DemiBold, AntipastoPro DemiBold;font-weight:700;}.cls-7{font-size:18.04px;}</style></defs><title>mark</title><g id="Layer_2" data-name="Layer 2"><g id="BACKGROUND_1" data-name="BACKGROUND 1"><path class="cls-1" d="M217.71,369.87a2.59,2.59,0,1,1-2.59-2.59A2.58,2.58,0,0,1,217.71,369.87Z"/><path class="cls-2" d="M203.84,116.78a18.56,18.56,0,1,0-7.37,6.68,9.24,9.24,0,0,0,12.22-.74c.18-.18.35-.38.51-.57Z"/><path class="cls-2" d="M166.19,100.51a18.46,18.46,0,0,0-15.63,28.31l-5.36,5.37q.24.28.51.57a9.24,9.24,0,0,0,12.22.74,18.47,18.47,0,1,0,8.26-35Z"/><path class="cls-3" d="M160.14,119.71a2.15,2.15,0,1,1-2.15-2.15A2.14,2.14,0,0,1,160.14,119.71Z"/><path class="cls-3" d="M168.33,119.71a2.15,2.15,0,1,1-2.14-2.15A2.14,2.14,0,0,1,168.33,119.71Z"/><path class="cls-3" d="M176.53,119.71a2.15,2.15,0,1,1-2.15-2.15A2.14,2.14,0,0,1,176.53,119.71Z"/><path class="cls-3" d="M182.87,107a1.71,1.71,0,1,1-1.71-1.7A1.71,1.71,0,0,1,182.87,107Z"/><path class="cls-3" d="M189.36,107a1.7,1.7,0,1,1-1.7-1.7A1.7,1.7,0,0,1,189.36,107Z"/><path class="cls-3" d="M195.85,107a1.7,1.7,0,1,1-1.7-1.7A1.7,1.7,0,0,1,195.85,107Z"/><path class="cls-2" d="M248.88,287.2a16.9,16.9,0,0,1-33.8,0c0-6,3.08-14.22,7.73-19.41a3,3,0,0,0,.85.13H240.3a3,3,0,0,0,.85-.12C245.8,273,248.88,281.24,248.88,287.2Z"/><path class="cls-2" d="M241.26,262.1l1.81-8.74a2.29,2.29,0,0,0-2.73-2.85l-5.91,1.9a7.69,7.69,0,0,1-4.72,0l-6.09-1.93a2.29,2.29,0,0,0-2.72,2.85l1.81,8.76"/><path class="cls-4" d="M243.22,265a2.87,2.87,0,0,1-.86,2.05,3,3,0,0,1-1.21.74,3,3,0,0,1-.85.12H223.66a2.93,2.93,0,0,1-2.92-2.91,2.87,2.87,0,0,1,.86-2.05,2.91,2.91,0,0,1,2.06-.86H240.3A2.92,2.92,0,0,1,243.22,265Z"/><text class="cls-5" transform="translate(227.02 292.84)">$</text><rect class="cls-2" x="44.15" y="48.62" width="57.62" height="47.61" rx="3.88" ry="3.88"/><line class="cls-4" x1="44.15" y1="83.58" x2="101.76" y2="83.58"/><path class="cls-3" d="M75.22,90.2A2.27,2.27,0,1,1,73,87.93,2.26,2.26,0,0,1,75.22,90.2Z"/><rect class="cls-2" x="66.05" y="96.22" width="13.81" height="7.53"/><rect class="cls-2" x="57.45" y="103.75" width="31" height="6.17" rx="2.33" ry="2.33"/><path class="cls-2" d="M112.45,146.13a3.68,3.68,0,0,1-2.62-1.09L98,133.22a3.7,3.7,0,1,1,5.23-5.24l8.85,8.85,13.65-17.64a3.7,3.7,0,1,1,5.86,4.53l-16.22,21a3.75,3.75,0,0,1-2.7,1.43Z"/><rect class="cls-1" x="276.79" y="166.58" width="7.75" height="22.23"/><rect class="cls-1" x="291.88" y="160.55" width="7.75" height="28.25"/><rect class="cls-1" x="306.98" y="154.14" width="7.75" height="34.67"/><rect class="cls-1" x="322.07" y="144.35" width="7.75" height="44.45"/><path class="cls-6" d="M329.44,122.57c-12.48,14.82-24.31,28.09-52.65,28.09"/><polyline class="cls-6" points="320.37 122.57 329.44 122.57 329.44 131.59"/><path class="cls-1" d="M21.22,212A13.07,13.07,0,0,0,8.15,225.11c0,7.85,13.07,26.27,13.07,26.27s13.07-18.61,13.07-26.27A13.07,13.07,0,0,0,21.22,212Zm0,16.49a4.9,4.9,0,1,1,4.9-4.89A4.89,4.89,0,0,1,21.22,228.53Z"/><path class="cls-1" d="M241.73,329.17v10.59a9.07,9.07,0,0,1-9.08,9.07l.71,9.93-13.64-9.93H209v-6.52a10.74,10.74,0,0,0-10.71-10.72H193.1v-2.42a9.07,9.07,0,0,1,9.07-9.07h30.48A9.07,9.07,0,0,1,241.73,329.17Z"/><line class="cls-6" x1="227.25" y1="327.94" x2="202.89" y2="327.94"/><line class="cls-6" x1="233.36" y1="340.48" x2="215.98" y2="340.48"/><line class="cls-6" x1="233.36" y1="334.21" x2="221.13" y2="334.21"/><line class="cls-6" x1="211.43" y1="334.21" x2="205.3" y2="334.21"/><path class="cls-6" d="M209,342.31v12.51a10.71,10.71,0,0,1-10.71,10.71H177.57l-16.1,11.73.84-11.73a10.71,10.71,0,0,1-10.72-10.71V342.31a10.71,10.71,0,0,1,10.72-10.72h36A10.74,10.74,0,0,1,209,342.31Z"/><line class="cls-6" x1="168.7" y1="340.85" x2="197.46" y2="340.85"/><line class="cls-6" x1="161.47" y1="355.66" x2="182" y2="355.66"/><line class="cls-6" x1="161.47" y1="348.26" x2="175.92" y2="348.26"/><line class="cls-6" x1="187.38" y1="348.26" x2="196.54" y2="348.26"/><circle class="cls-2" cx="34.16" cy="135" r="25.53"/><circle class="cls-2" cx="34.16" cy="135" r="18.73" transform="translate(-88.32 68.75) rotate(-47.39)"/><line class="cls-6" x1="34.16" y1="109.47" x2="34.16" y2="116.26"/><line class="cls-6" x1="56.06" y1="121.88" x2="50.32" y2="125.52"/><line class="cls-6" x1="17.82" y1="125.83" x2="12.14" y2="122.09"/><line class="cls-6" x1="15.43" y1="117.66" x2="20.22" y2="122.45"/><text class="cls-7" transform="translate(27.73 140.65)">%</text><path class="cls-2" d="M158.12,42.07l-5.19,36.44a6.9,6.9,0,0,1-6.83,5.93h-.17V42.33l4-.26Z"/><path class="cls-2" d="M182.35,32.2a8.65,8.65,0,0,1-8.64,8.65V23.55A8.65,8.65,0,0,1,182.35,32.2Z"/><path class="cls-4" d="M169,13.76V50.64a8.57,8.57,0,0,0-8.56-8.57H145a9.87,9.87,0,1,1,0-19.74h15.4A8.57,8.57,0,0,0,169,13.76Z"/><line class="cls-4" x1="151.14" y1="22.33" x2="151.14" y2="41.54"/><path class="cls-4" d="M173.71,11.49V52.26a2.36,2.36,0,0,1-4.71,0V11.49a2.36,2.36,0,0,1,4.71,0Z"/><line class="cls-6" x1="202.27" y1="7.25" x2="209.81" y2="1.5"/><line class="cls-6" x1="184.59" y1="20.71" x2="195.6" y2="12.32"/><line class="cls-6" x1="195.29" y1="23.59" x2="186.83" y2="27.87"/><line class="cls-6" x1="215.12" y1="13.54" x2="202.77" y2="19.8"/><line class="cls-6" x1="202.27" y1="56.42" x2="209.81" y2="62.17"/><line class="cls-6" x1="184.59" y1="42.96" x2="195.6" y2="51.34"/><line class="cls-6" x1="195.29" y1="40.08" x2="186.83" y2="35.79"/><line class="cls-6" x1="215.12" y1="50.12" x2="202.77" y2="43.87"/><line class="cls-6" x1="192.22" y1="31.88" x2="197.32" y2="31.88"/><line class="cls-6" x1="202.77" y1="31.88" x2="213.52" y2="31.88"/><line class="cls-6" x1="220" y1="31.93" x2="224.39" y2="31.93"/><rect class="cls-1" x="139.68" y="265.3" width="6.44" height="18.98" rx="3.22" ry="3.22"/><path class="cls-1" d="M192.55,284.28h0a3.23,3.23,0,0,1-3.22-3.22V268.52a3.23,3.23,0,0,1,3.22-3.22h0a3.23,3.23,0,0,1,3.22,3.22v12.54A3.23,3.23,0,0,1,192.55,284.28Z"/><path class="cls-6" d="M142.9,265.3a24.83,24.83,0,0,1,49.65,0"/><path class="cls-6" d="M190.51,284.28l-3.07,8.2a14.39,14.39,0,0,1-17.6,8.74h0"/><path class="cls-1" d="M171.49,299.86a3.77,3.77,0,1,1-3.77-3.77A3.76,3.76,0,0,1,171.49,299.86Z"/><path class="cls-1" d="M41.17,206.3v3.59a5.9,5.9,0,0,0,5.9,5.9H85.64"/><path class="cls-1" d="M52.3,206.3V162.51H90.93v48a5.29,5.29,0,0,1-5.29,5.28h0a5.29,5.29,0,0,1-5.29-5.28V206.3H41.17"/><line class="cls-6" x1="59.41" y1="172.5" x2="80.35" y2="172.5"/><line class="cls-6" x1="59.41" y1="193.34" x2="80.35" y2="193.34"/><line class="cls-6" x1="59.41" y1="186.4" x2="80.35" y2="186.4"/><line class="cls-6" x1="59.41" y1="179.45" x2="73.64" y2="179.45"/><path class="cls-2" d="M308.77,112.61l8.76-16a15,15,0,0,0,1.56-10h0a15,15,0,0,0-14.68-12.1H302.2a15,15,0,0,0-14.68,12.1h0a15,15,0,0,0,1.56,10l8.76,16Z"/><line class="cls-4" x1="303.31" y1="116.42" x2="303.31" y2="116.41"/><path class="cls-4" d="M301.2,116.42v-22a2.7,2.7,0,0,0-2.7-2.7h0a2.7,2.7,0,0,0-2.7,2.7v.42a2.69,2.69,0,0,0,2.7,2.69h7.31"/><path class="cls-4" d="M305.42,116.42v-22a2.69,2.69,0,0,1,2.69-2.7h0a2.7,2.7,0,0,1,2.7,2.7v.42a2.69,2.69,0,0,1-2.7,2.69h-7.3"/><path class="cls-1" d="M306.78,117.5h-6.94a2.67,2.67,0,0,1-2.67-2.66h0a2.67,2.67,0,0,1,2.67-2.66h6.94a2.67,2.67,0,0,1,2.66,2.66h0A2.67,2.67,0,0,1,306.78,117.5Z"/><path class="cls-1" d="M306.78,112.18h-6.94a2.67,2.67,0,0,0-2.67,2.66h0a2.67,2.67,0,0,0,2.67,2.66h6.94a2.67,2.67,0,0,0,2.66-2.66h0A2.67,2.67,0,0,0,306.78,112.18Z"/><path class="cls-1" d="M306.78,117.5h-6.94a2.67,2.67,0,0,0-2.67,2.66h0a2.68,2.68,0,0,0,2.67,2.67h6.94a2.67,2.67,0,0,0,2.66-2.67h0A2.67,2.67,0,0,0,306.78,117.5Z"/><rect class="cls-2" x="282.21" y="211.71" width="68.16" height="41.21" rx="3.59" ry="3.59"/><line class="cls-6" x1="289.5" y1="244.55" x2="307.16" y2="244.55"/><line class="cls-6" x1="315.39" y1="244.55" x2="328.41" y2="244.55"/><line class="cls-6" x1="336.72" y1="244.55" x2="343.23" y2="244.55"/><rect class="cls-6" x="291.11" y="220.79" width="12.2" height="12.2"/><line class="cls-6" x1="299.25" y1="220.79" x2="299.25" y2="225.61"/><line class="cls-6" x1="294.85" y1="226.89" x2="294.85" y2="231.71"/><line class="cls-6" x1="343.23" y1="211.71" x2="343.23" y2="252.92"/><path class="cls-1" d="M48.42,276.39l2.39,5.55a4.91,4.91,0,0,0,4.24,2.94,3.8,3.8,0,0,1,6.72.47l2.33,5.38a3.83,3.83,0,0,1-2,5l-1.25.54a11.14,11.14,0,0,1-14.6-5.8l-7.17-16.63a11.14,11.14,0,0,1,5.8-14.6l1.25-.54a3.82,3.82,0,0,1,5,2l2.32,5.38a3.85,3.85,0,0,1-2,5,3.83,3.83,0,0,1-2.28.22A4.9,4.9,0,0,0,48.42,276.39Z"/><path class="cls-1" d="M96.61,306.15h-.14l2.76,17.08,13.38-10.89A23.72,23.72,0,0,0,96.61,306.15Z"/><path class="cls-1" d="M73,326.42H92.27l-3.08-19.08A24,24,0,0,0,73,326.42Z"/><path class="cls-1" d="M107,326.42H120.2a23.63,23.63,0,0,0-3-8.32Z"/><path class="cls-1" d="M96.61,354.11h.13l-2.85-17.64L79.22,346.55A23.78,23.78,0,0,0,96.61,354.11Z"/><path class="cls-1" d="M120.2,333.83H100.94L104,352.92A24,24,0,0,0,120.2,333.83Z"/><polyline class="cls-6" points="72.85 332.74 70.07 338.02 75.33 340.79"/><line class="cls-6" x1="72.68" y1="337.09" x2="91.89" y2="332.16"/><circle class="cls-1" cx="282.99" cy="321.11" r="3.77"/><path class="cls-1" d="M315,319.17a3.22,3.22,0,1,1-3.22-3.22A3.22,3.22,0,0,1,315,319.17Z"/><polygon class="cls-1" points="312.78 299.5 282.25 299.5 277.59 279.81 317.57 279.81 312.78 299.5"/><path class="cls-6" d="M283.36,320.58,288,316h25.64a4,4,0,0,0,3.95-3.95h0a3.94,3.94,0,0,0-3.95-3.94H284.27L274.32,266h-9.67"/><line class="cls-6" x1="279.22" y1="286.13" x2="304.77" y2="286.13"/><line class="cls-6" x1="280.64" y1="292.73" x2="297.58" y2="292.73"/><path class="cls-1" d="M269.12,87.53l6.48-.87-1-7.56-6.45.86c-.21-.65-.47-1.28-.74-1.9l5.33-3.75-4.4-6.25L263,71.81c-.49-.48-1-.92-1.54-1.36l3-5.77-6.77-3.52-3,5.78a19.94,19.94,0,0,0-2.92-.64v-7H244.1v7.38a21.16,21.16,0,0,0-2.14.63l-3.34-5.6-6.56,3.88,3.33,5.62c-.51.46-1,.93-1.47,1.43l-5.53-3.43-4,6.48,5.53,3.43a19.25,19.25,0,0,0-.63,2l-6.51-.5-.58,7.61,6.48.51a18.91,18.91,0,0,0,.34,2l-6,2.55,3,7,6-2.54c.4.56.8,1.12,1.23,1.65l-4.14,5,5.89,4.86,4.14-5a19.79,19.79,0,0,0,1.85.91l-1.35,6.36,7.45,1.59,1.37-6.37h.46a14.29,14.29,0,0,0,1.6-.08l1.71,6.29,7.36-2-1.72-6.29a19.51,19.51,0,0,0,1.79-1l4.44,4.79,5.6-5.19-4.44-4.78c.41-.55.78-1.13,1.14-1.71L272.48,99l2.58-7.19-6.14-2.2A19.84,19.84,0,0,0,269.12,87.53Zm-20.26,9.71a10.83,10.83,0,1,1,10.82-10.82A10.83,10.83,0,0,1,248.86,97.24Z"/><path class="cls-6" d="M259.68,86.42a10.83,10.83,0,1,1-10.82-10.84A10.81,10.81,0,0,1,259.68,86.42Z"/><path class="cls-2" d="M121.72,265.64l3-.13-.22-5.39-3.41.14a18.06,18.06,0,0,0-1.07-2.91l2.91-1.7L120.23,251l-3.18,1.86a18.2,18.2,0,0,0-2.17-2l1.87-3-4.59-2.84-2,3.2a20,20,0,0,0-2.38-.73v-3.28h-5.4V247a16.69,16.69,0,0,0-2.37.33L98.8,244.7,93.9,247l1,2.26a18.77,18.77,0,0,0-2.89,2l-2-1.52-3.27,4.31,1.72,1.3a18.75,18.75,0,0,0-1.63,3.3l-2.18-.35-.86,5.33,1.94.31c0,.34-.05.66-.05,1a17.58,17.58,0,0,0,.24,2.75l-2,.68,1.74,5.12,1.87-.64a17.13,17.13,0,0,0,2,3.16l-1.51,1.59L92,281.31l1.5-1.58a18,18,0,0,0,3.16,1.76L96,283.85l5.21,1.44.67-2.44c.62.06,1.25.1,1.89.1.31,0,.6,0,.91-.05L105,285l5.34-.81-.35-2.31a17.76,17.76,0,0,0,3.25-1.58l1.38,1.85,4.33-3.22-1.58-2.14a18.15,18.15,0,0,0,2-2.81l2.39,1.14,2.32-4.88-2.75-1.3A18.41,18.41,0,0,0,121.72,265.64Zm-17.42,2.22a3.14,3.14,0,1,1,3.14-3.15A3.14,3.14,0,0,1,104.3,267.86Z"/><path class="cls-1" d="M73.28,266a2.59,2.59,0,1,1-2.59-2.59A2.59,2.59,0,0,1,73.28,266Z"/><path class="cls-1" d="M283.23,196.06a2.59,2.59,0,1,1-2.59-2.59A2.58,2.58,0,0,1,283.23,196.06Z"/><path class="cls-1" d="M279.38,127.08a2.59,2.59,0,1,1-2.59-2.59A2.59,2.59,0,0,1,279.38,127.08Z"/><path class="cls-1" d="M294.58,62.17A2.59,2.59,0,1,1,292,59.58,2.59,2.59,0,0,1,294.58,62.17Z"/><path class="cls-1" d="M236.88,16.67a2.59,2.59,0,1,1-2.59-2.59A2.59,2.59,0,0,1,236.88,16.67Z"/><path class="cls-1" d="M112.84,31.88a2.59,2.59,0,1,1-2.59-2.59A2.59,2.59,0,0,1,112.84,31.88Z"/><path class="cls-1" d="M198.44,75.58A2.59,2.59,0,1,1,195.85,73,2.59,2.59,0,0,1,198.44,75.58Z"/><path class="cls-1" d="M29,90.23a2.59,2.59,0,1,1-2.59-2.59A2.59,2.59,0,0,1,29,90.23Z"/><path class="cls-1" d="M266,142.61a2.59,2.59,0,1,1-2.59-2.59A2.59,2.59,0,0,1,266,142.61Z"/><path class="cls-1" d="M254.89,229.3a2.59,2.59,0,1,1-2.58-2.59A2.58,2.58,0,0,1,254.89,229.3Z"/><path class="cls-1" d="M141.37,318.1a2.59,2.59,0,1,1-2.59-2.59A2.59,2.59,0,0,1,141.37,318.1Z"/><path class="cls-1" d="M21.9,277.78a2.59,2.59,0,1,1-2.59-2.58A2.59,2.59,0,0,1,21.9,277.78Z"/><path class="cls-1" d="M6.68,192.43a2.59,2.59,0,1,1-2.59-2.59A2.58,2.58,0,0,1,6.68,192.43Z"/><path class="cls-1" d="M133.06,57.74a2.59,2.59,0,1,1-2.59-2.59A2.59,2.59,0,0,1,133.06,57.74Z"/><path class="cls-1" d="M358.39,198.64a2.59,2.59,0,1,1-2.59-2.58A2.59,2.59,0,0,1,358.39,198.64Z"/><path class="cls-1" d="M261.47,343.37a2.59,2.59,0,1,1-2.59-2.58A2.59,2.59,0,0,1,261.47,343.37Z"/><path class="cls-1" d="M271.93,244.55a2.59,2.59,0,1,1-2.59-2.59A2.59,2.59,0,0,1,271.93,244.55Z"/><line class="cls-6" x1="51.2" y1="241.64" x2="80.9" y2="241.64"/><line class="cls-6" x1="61.39" y1="232.54" x2="79.72" y2="232.54"/><line class="cls-6" x1="278.23" y1="39.01" x2="248.53" y2="39.01"/><line class="cls-6" x1="268.05" y1="29.92" x2="249.72" y2="29.92"/><line class="cls-6" x1="272.39" y1="332.22" x2="263.38" y2="332.22"/><line class="cls-6" x1="55.8" y1="317.34" x2="46.79" y2="317.34"/><line class="cls-6" x1="247.63" y1="160.9" x2="238.62" y2="160.9"/><line class="cls-6" x1="86.79" y1="34.47" x2="77.78" y2="34.47"/><line class="cls-6" x1="261.28" y1="179.96" x2="252.27" y2="179.96"/><line class="cls-6" x1="263.39" y1="314.69" x2="254.38" y2="314.69"/><line class="cls-6" x1="236.49" y1="129.67" x2="227.48" y2="129.67"/><line class="cls-6" x1="132.38" y1="11.44" x2="123.37" y2="11.44"/><line class="cls-6" x1="352.24" y1="174.68" x2="343.23" y2="174.68"/><line class="cls-6" x1="170.69" y1="285.29" x2="161.68" y2="285.29"/><line class="cls-6" x1="178.89" y1="72.42" x2="169.88" y2="72.42"/><line class="cls-6" x1="83.73" y1="129.52" x2="74.72" y2="129.52"/><line class="cls-6" x1="115.08" y1="162.51" x2="106.07" y2="162.51"/><line class="cls-6" x1="112.09" y1="363.31" x2="141.79" y2="363.31"/><line class="cls-6" x1="122.28" y1="354.22" x2="140.6" y2="354.22"/><line class="cls-6" x1="4.46" y1="179.96" x2="34.16" y2="179.96"/><line class="cls-6" x1="14.65" y1="170.87" x2="32.97" y2="170.87"/><line class="cls-6" x1="101.71" y1="105.06" x2="131.41" y2="105.06"/><line class="cls-6" x1="111.89" y1="95.96" x2="130.22" y2="95.96"/></g></g></svg>