<svg xmlns="http://www.w3.org/2000/svg" xmlns:xlink="http://www.w3.org/1999/xlink" viewBox="0 0 453.31 325.52"><defs><style>.cls-1,.cls-11,.cls-12,.cls-14,.cls-20,.cls-27{fill:none;}.cls-2{fill:#eff0f0;}.cls-3{fill:#00b94e;}.cls-4{fill:#bfc4c4;}.cls-5{fill:#b57053;}.cls-6{fill:#da5955;}.cls-7{fill:#393762;}.cls-8{fill:#e69d35;}.cls-9{fill:#f2957e;}.cls-10{fill:#f6ba99;}.cls-11,.cls-12,.cls-14{stroke:#333;}.cls-11,.cls-14,.cls-20,.cls-27{stroke-linecap:round;}.cls-11,.cls-12,.cls-14,.cls-20,.cls-27{stroke-miterlimit:10;}.cls-11,.cls-12,.cls-20{stroke-width:0.5px;}.cls-13{fill:#333;}.cls-14{stroke-width:0.75px;}.cls-15{fill:#82819c;}.cls-16{fill:#e9a94d;}.cls-17{fill:#68addb;}.cls-18{fill:#7eb9f5;}.cls-19{fill:#fff;}.cls-20,.cls-27{stroke:#393762;}.cls-21{fill:#005d8e;}.cls-22{clip-path:url(#clip-path);}.cls-23{fill:#eeb3b1;}.cls-24{fill:#1d1d1d;}.cls-25{fill:#bfbfc0;}.cls-26{fill:#c2defa;}</style><clipPath id="clip-path"><path class="cls-1" d="M138.8,24.19l-120.47,12,4.32,94.45a7.66,7.66,0,0,1,.85-3.34c3.55-6.77,12.58-7.09,16.45-9s2.9-6.45,0-11S41.24,94,49,90.49A18.42,18.42,0,0,1,63.23,90a4.46,4.46,0,0,1,1.51,0,15.28,15.28,0,0,1,7.4,2.11,9.92,9.92,0,0,1,1.15.75,7.49,7.49,0,0,1,.6.49,3.79,3.79,0,0,1,.37.31,8,8,0,0,1,.71.72.94.94,0,0,1,.1.1,13.76,13.76,0,0,1,3.1,9.88c-.4,1,3.41,5,3.21,6.63s-2.21,2.81-2.21,2.81-1.6,6.23-3.61,9c-.89,1.25-2.5,1.43-4,1.25a12,12,0,0,1-1.85,5.71A21.8,21.8,0,0,1,73.42,131l10.9,70.82,50.49-5.32L148.1,51.21Z"/></clipPath></defs><title>question</title><g id="Layer_2" data-name="Layer 2"><g id="OBJECTS"><path class="cls-2" d="M374.74,269.59c31.26-17.95,53.64-55.15,62-89.41,14.95-61.38-.79-128.27-41.71-138.5s-51.14,33.84-122.75,5.51c-37.16-14.7-78.63-44.4-121-34.91-54.79,12.29-32,65.23-48.2,103.37C86.24,155.31.41,163.11,21.75,219.91c12.71,33.86,57.38,50.76,90.78,50.76,47.21,0,74.75-29.11,129.83-18.88,25.71,4.77,47.35,19.22,72.26,25.92C336.85,283.68,357.19,279.67,374.74,269.59Z"/><path class="cls-3" d="M378.56,132.77s-7.32,7.36-11.13,9.14-11.16,7.86-11.16,7.86l2.54,10.41s11.92-5.33,16-5.33,8.12-3,8.12-3S382.08,132.52,378.56,132.77Z"/><ellipse class="cls-4" cx="404.22" cy="307.99" rx="49.09" ry="10.86"/><ellipse class="cls-4" cx="331.64" cy="306.75" rx="21.09" ry="4.66"/><path class="cls-5" d="M403.25,86.86a11.91,11.91,0,0,1,8.83-.22c5.17,1.73,6.9,5.39,7.11,9.7a16.65,16.65,0,0,0,2.8,9c1.51,2.37,1.72,4.1,1.72,11.42s-3.87,9.7-3.44,12.06,8.4,5.39,9.69,11.42-3.44,7.76-4.09,11.2,1.51,6,.43,9.91-4.74,8.83-12.71,9.27-15.29-13.58-21.33-20.47-10.77-13.79-9.91-20.25,5.61-6.89,5.61-11.63-5-8.4-3-13.57,3.66-4.74,4.74-9.91S395.06,87.07,403.25,86.86Z"/><path class="cls-6" d="M375.73,183.21s-6.73,42.85-5.72,56,15.58,59.34,15.58,59.34-9.62,5.73-9.85,8c-.4,3.93,15.13-3.22,15.64-6.25s-6.08-45.68-4.65-57.9c.46-3.89,2.25-13.18,2.75-16.72s3.92-18.91,3.92-18.91,7.94,34.1,11,40.67,12.36,23.7,21.31,39.18A77.3,77.3,0,0,1,430.81,298s-.57,14.13,1.52,15c3.53,1.43,4.05-13.14,4.05-14.66s-3.49-9.18-7-25.87-9.35-24.68-9.86-30.24-1.22-47.21-4.3-56.47S379.29,175.32,375.73,183.21Z"/><path class="cls-7" d="M391.38,300.31v-.05a12.58,12.58,0,0,1-5.79-1.72s-9.62,5.73-9.85,8C375.34,310.49,390.87,303.34,391.38,300.31Z"/><path class="cls-7" d="M430.81,298s-.57,14.13,1.52,15c3.53,1.43,4.05-13.14,4.05-14.66C432.14,300.88,430.81,298,430.81,298Z"/><path class="cls-8" d="M415.08,185c-2-10.71-3.28-12.46-3.28-13.77S416,150.48,416,150.48s9.14-2.81,4.16-16c-1.39-3.65-14-7.21-17.5-7.87s-12.24.44-12.24.44-10.5,3.93-11.81,5.68,0,8.31,0,11.15.44,2.85,0,3.94-2.62,3.06-2.4,7.44,2.62,8.52,2.84,11.37c.16,2.12-1.51,8.15-3.27,16.54,3.19,2,8.71,4.29,17.26,4.67a87.69,87.69,0,0,0,22.2-2.17C415.15,185.48,415.12,185.25,415.08,185Z"/><path class="cls-9" d="M395.4,114.08s.65,2-1.53,7.87-1.75,16.19.87,15.31,7.66-10.71,8.31-15.09,1.31-9.84,1.31-9.84Z"/><path class="cls-10" d="M413.79,105.76s-.31.55-1.28-7.48c-1.08-9-7.07-8.68-14.43-9-4.31-.22-4.46,3.64-5.6,8s-2.15,9.26-2.15,9.26a13.11,13.11,0,0,0-1.51,5,29.54,29.54,0,0,0,3,10.55c.65,1.08,1.73,1.94,4.31,1.94,8.83-1.51,14-10.19,14-10.19s2.5,2,5-1.59S417.66,104.62,413.79,105.76Z"/><line class="cls-11" x1="394.58" y1="115.88" x2="395.66" y2="116.43"/><path class="cls-5" d="M398.3,94.4s-3.24-1.94-5,.21-1.51,6.25-2.15,7.54-2.59,4.1-2.59,4.1,1.29-4.31.22-7.76-1.94-8.83,1.51-11.63,11.2-1.29,13.78.86S398.3,94.4,398.3,94.4Z"/><path class="cls-5" d="M398.3,94.4s3.23-.22,4.73,4.52,3.67,11.42,6.9,13.79,3.44,3,1.94,6.89-3,5.39-2.16,8.4,8,3.88,8,3.88-3-4.09-1.72-6.89,5.6-8.4,4.52-13.14-5.6-5.6-5.17-8.84,3.67-8,1.51-11.84-7.11-2.8-9.48-3.88S399.37,85.57,398.3,94.4Z"/><path class="cls-5" d="M398.3,94.4s-.65,5.38,1.93,8.4a6.31,6.31,0,0,0,6,2.15s-5.39-1.29-5.17-6.46-1.73-7.11-1.73-7.11Z"/><path class="cls-5" d="M397,94.18s-1.29-.64-2.8,1.73-1.72,4.3-2.8,5.6-3.88,1.5-3.88,1.5,2.59-.86,3.24-4.73,2.58-6,5.17-6"/><path class="cls-5" d="M387.74,92.46s1.94,4.31.22,6.25a6.3,6.3,0,0,1-4.31,1.94,6,6,0,0,0,3.87,2.36c2.37.22,5-5.17,5-5.17"/><path class="cls-12" d="M396.92,108.84s0,2.13-1.5,2.35.64,1.92.64,1.92"/><path class="cls-13" d="M402.58,110c-.19.94-.63,1.64-1,1.57s-.47-.89-.27-1.83.64-1.65,1-1.57S402.78,109.1,402.58,110Z"/><path class="cls-13" d="M394.89,107.66c-.19.94-.64,1.64-1,1.57s-.47-.89-.27-1.83.64-1.65,1-1.57S395.09,106.72,394.89,107.66Z"/><path class="cls-14" d="M392.76,103.9s1.92-2,3.5.23"/><path class="cls-14" d="M401.23,105.82a2,2,0,0,1,2.93,1.25"/><path class="cls-10" d="M346.53,122.64s-2.18,16.23-1.21,24.71,6.79,11.64,9.7,9.46,2.66-13.82,1.21-21.09-2.67-12.36-3.88-14.54S347.5,117.79,346.53,122.64Z"/><path class="cls-10" d="M330.48,120.71s5.88,3.14,9.27,3.62,10.42-1.94,10.42-1.94a12.57,12.57,0,0,0-6.06-1.93c-3.15,0-10.42-1.46-11.87-1.46S330.48,120.71,330.48,120.71Z"/><path class="cls-15" d="M313.2,195.81v-6.27c0-32.25,40.84-33.64,40.84-56.62,0-10-8.12-16.47-20.19-16.47-13.23,0-21.58,7.19-21.58,17.4v2.55c0,2.56-1.39,3.72-3.94,3.72l-24.83-.93c-2.32,0-3.95-1.16-3.95-2.79v-2.55c0-28.08,22.28-47.33,55-47.33,32,0,52.67,18.09,52.67,45.24,0,38.52-41.53,38.75-41.53,59.87v4.18c0,2.55-1.4,3.94-3.95,3.94h-24.6C314.59,199.75,313.2,198.36,313.2,195.81Zm-2.09,37.35c0-10.2,9.05-18.56,20-18.56,10.44,0,19.72,8.36,19.72,18.56s-9.28,18.57-20,18.57C319.93,251.73,311.11,243.38,311.11,233.16Z"/><path class="cls-7" d="M313.2,198.86v-6.27C313.2,160.34,354,159,354,136c0-10-8.12-16.47-20.19-16.47-13.23,0-21.58,7.19-21.58,17.4v2.55c0,2.56-1.39,3.72-3.94,3.72l-24.83-.93c-2.32,0-3.95-1.16-3.95-2.79V136.9c0-28.08,22.28-47.33,55-47.33,32,0,52.67,18.09,52.67,45.24,0,38.52-41.53,38.75-41.53,59.87v4.18c0,2.55-1.4,3.94-3.95,3.94h-24.6C314.59,202.8,313.2,201.41,313.2,198.86Zm-2.09,37.35c0-10.2,9.05-18.56,20-18.56,10.44,0,19.72,8.36,19.72,18.56s-9.28,18.57-20,18.57C319.93,254.78,311.11,246.43,311.11,236.21Z"/><path class="cls-10" d="M420.46,136.91s-1.88-4.31-7.54-2.15S400,152,393,155s-23.16,10.23-27.47,13.2-23.7,9.15-23.7,9.15L337,175.43s-4.29-1.53-4.45-.64,1.54,2.17,3.4,2.91l-3,.35c-1.35.15-2.71.08-4.06.26a3.09,3.09,0,0,0-1.69.49c-.48.48-.48,1.33.33,1.33,1.35,0,5.18.4,5.18.4l-5,1a1.08,1.08,0,0,0-.68,1.32,1.1,1.1,0,0,0,1.2.78s10.38-2.39,2,.53c-1.09.38-2,.66-1.69,1.78.46,1.71,5.81-.75,7-1.05-.87.39-1.73.81-2.58,1.25-.39.2-1.54.57-1.69,1-.26.72.84,1.33,1.45,1.16a8.32,8.32,0,0,0,1.29-.67l4-2.08q3.69-1.92,7.4-3.82c6.8-1.64,24.16-5.74,30.6-6.6,8.08-1.08,20.47-5.93,24.78-7.81s15.08-13.47,18.58-19.12A13.07,13.07,0,0,0,420.46,136.91Z"/><path class="cls-16" d="M419.38,148.23a13.07,13.07,0,0,0,1.08-11.32s-1.88-4.31-7.54-2.15S400,152,393,155c-5.39,2.28-16.17,7.1-22.83,10.55l3.24,10.07c1-.18,1.89-.32,2.62-.42,8.08-1.08,20.47-5.93,24.78-7.81S415.88,153.88,419.38,148.23Z"/><path class="cls-10" d="M332.14,116.72s-2.9,3.62-1.66,4,2.69-3.08,2.9-3.81S333,116.18,332.14,116.72Z"/><path class="cls-10" d="M334.42,115.85s-3.39,4.85-1.94,5.33,3.15-4.12,3.39-5.09S335.39,115.12,334.42,115.85Z"/><path class="cls-10" d="M336.36,116.09s-3.4,4.85-1.94,5.33,3.15-4.11,3.39-5.08S337.33,115.37,336.36,116.09Z"/><path class="cls-10" d="M338.3,117.06s-3.4,4.85-1.94,5.33,3.15-4.12,3.39-5.08S339.26,116.34,338.3,117.06Z"/><ellipse class="cls-4" cx="100.36" cy="316.42" rx="21.09" ry="4.66"/><path class="cls-7" d="M63.5,90.16A18.31,18.31,0,0,0,49,90.49c-7.74,3.55-11.93,12.26-9,16.77s3.87,9,0,11-12.9,2.26-16.45,9,5.16,15.81,5.16,19.68-5.16,3.55-7.42,11.62,1.29,16.77,17.42,17.74,21.62-12.58,23.23-19.36-2.26-17.09,1-20,8.38-6.45,8.71-12.9-4.2-17.42-4.52-23.23-.32-8.07-.32-8.07l-1.94-1.93Z"/><path class="cls-17" d="M75.48,133.11s1.56-1.22,3.75,2.59S86.57,153.54,90,158.07s7.79,10.48,7.79,10.48-4.73,1.8-7.12,4.67S88,177.41,88,177.41a61.36,61.36,0,0,1-9-13.89,118.13,118.13,0,0,1-7.1-25.15c-.67-5.21,2.88-5.89,2.88-5.89Z"/><ellipse class="cls-4" cx="52.66" cy="308.48" rx="52.66" ry="10.12"/><path class="cls-10" d="M37.39,229.61s1.21,8,.6,9-8.28,12.74-11.1,20.58-9.39,30.66-10.6,35.69-4.42,9.24-3.61,11.45,12.05,9.64,13.66,9.44.8-2.41-.6-6-5.63-8.23-5.23-11.45S34.78,270,39.6,263.16,47,249.7,49.44,244.07a104.82,104.82,0,0,0,4.42-14.46Z"/><path class="cls-7" d="M21.83,302.79l-3.93,1.75-3.3-4.84c-1.23,2.86-2.45,5.19-1.92,6.65.8,2.21,12.05,9.64,13.66,9.44s.8-2.41-.6-6C24.9,307.62,23.09,305.14,21.83,302.79Z"/><path class="cls-10" d="M67.12,231.62a43.38,43.38,0,0,1,1.17,10.47c0,6.23,4.25,24.48,4.45,33.12s2.21,18.28,1.61,21.9-.4,5,.2,5.22,19.09,1,20.29,0,2.41-.6,1.41-2-15.67-8-15.67-9.64,0-26.12.4-36,1.41-19.69.6-24.11S67.12,231.62,67.12,231.62Z"/><path class="cls-18" d="M55.67,130.37S42.21,132.78,42,134s2.81,21.9,4.82,27.12,1.81,5.23.8,10.25-7,12.45-9.64,26.32-3,33.14-3,34,8.84,5,24.71,4,22.9-3.81,23.7-5.22-4.62-40.58-6.23-47.21S73.75,167.73,75,164.52s3.62-6,3.82-10.45-3.41-10.85-3.21-13.86,2.61-4.22,1.2-6.83-8-4-11.85-4A63,63,0,0,0,55.67,130.37Z"/><path class="cls-19" d="M61.09,126.15s-5.62.6-7,2.81,0,12.46,1,14.67S61.29,139,63.3,139s5.43,4.21,6.63,2.61S70.94,129,61.09,126.15Z"/><path class="cls-10" d="M78.17,104.45s1-8.23-6-12.25-14.26-2-19.08,3.21-2.41,17.08-.81,20.09,5.83,3.82,6.83,5.83.41,4.42-.6,7.43S61.7,139,63.3,139s1.61-6,2.61-9.45,2-6.42,2-6.42,5.63,2.61,7.64-.21,3.61-9,3.61-9,2-1.2,2.21-2.81S77.77,105.46,78.17,104.45Z"/><path class="cls-7" d="M76.93,106.63c0,1.05-.35,1.91-.78,1.91s-.77-.86-.77-1.91.34-1.92.77-1.92S76.93,105.57,76.93,106.63Z"/><path class="cls-7" d="M77,116.51c-.24,1-.77,1.78-1.19,1.68s-.56-1-.32-2,.77-1.78,1.19-1.68S77.22,115.48,77,116.51Z"/><path class="cls-20" d="M74,103.37s.21-1.66,1.35-2,1.86,1,1.86,1"/><path class="cls-7" d="M72.14,92.2c-7-4-15.12-1.75-19.94,3.47a8,8,0,0,0-.66.85c-4.33,9-1.7,13.94-1.7,13.94a14.22,14.22,0,0,0,2,5.24c1.24,2.33,4.48,3.14,6.15,4.4,1.7-1.16,1.77-3.07,2.93-5.4a49.62,49.62,0,0,1,3.22-6c1-1.4-3.22-3.61,1.4-9.44,3.14-4,7.67-4.11,10.25-3.81A11.47,11.47,0,0,0,72.14,92.2Z"/><path class="cls-21" d="M65.3,90.27s-9.56,5.22-6.8,19c0,0-6.23-9.84,1.88-18.39C60.38,90.85,63.56,89.41,65.3,90.27Z"/><path class="cls-10" d="M63.3,111.69s-3-5-5.82-1.61,1.2,6.63,2.21,7,4.62-1.21,4.62-1.21"/><path class="cls-5" d="M74.83,171.31a43.83,43.83,0,0,1-12.73,2.85c-7.73.76-12.26-1-14.55-2.47-1.2,5-7,12.42-9.56,26-2.61,13.86-3,33.14-3,34s8.84,5,24.71,4,22.9-3.81,23.7-5.22-4.62-40.58-6.23-47.21A113.41,113.41,0,0,1,74.83,171.31Z"/><path class="cls-19" d="M99.77,167.43s-2.49-3.31-5.7-2.1-8.1,8.23-7.27,11.54,2.58,3.71,4.82,3.56,9.11-5.79,9.8-8.85A3.52,3.52,0,0,0,99.77,167.43Z"/><path class="cls-10" d="M114,187.61s-11.38-12.18-13-14.21-3.6-3-6.45-1.45-4,5.54-1.88,7.91,19.19,11.45,19.19,11.45.61,3.17,2.92,3.9a14.35,14.35,0,0,0,5.55.21s5.08-2.74,4.74-3.91-.62-2.67-.62-2.67l-9.56-.92Z"/><path class="cls-7" d="M83.87,293.26l-1.68,5.05-8-.49c-.45,3.07-.25,4.32.31,4.51s19.09,1,20.29,0,2.41-.6,1.41-2C95.55,299.34,88.26,295.84,83.87,293.26Z"/><g class="cls-22"><path class="cls-23" d="M84.14,144.21l-1.6-6.06C74.32,107,113.46,95.21,107.61,73c-2.54-9.65-12-13.87-23.72-10.79-12.79,3.37-19,12.45-16.43,22.32L68.11,87c.65,2.47-.4,4-2.87,4.6L41,97c-2.24.59-4.11-.11-4.52-1.69l-.65-2.46C28.67,65.72,45.3,41.42,76.94,33.08c31-8.15,55.55,4.09,62.46,30.34,9.82,37.25-30.29,48.05-24.91,68.47l1.06,4c.65,2.47-.34,4.17-2.81,4.82L89,147C86.49,147.67,84.79,146.68,84.14,144.21Zm7.49,36.65c-2.6-9.87,4-20.25,14.57-23,10.1-2.66,21.2,3.06,23.81,12.93s-4.25,20.31-14.57,23C104.89,196.57,94.24,190.74,91.63,180.86Z"/><path class="cls-6" d="M84.14,146.11l-1.6-6.05c-8.22-31.19,30.92-42.94,25.07-65.16-2.54-9.65-12-13.86-23.72-10.79-12.79,3.37-19,12.46-16.43,22.33l.65,2.47c.65,2.47-.4,3.94-2.87,4.59L41,98.93c-2.24.59-4.11-.12-4.52-1.69l-.65-2.47C28.67,67.62,45.3,43.32,76.94,35c31-8.16,55.55,4.08,62.46,30.34,9.82,37.25-30.29,48.05-24.91,68.47l1.06,4c.65,2.47-.34,4.17-2.81,4.82L89,148.92C86.49,149.57,84.79,148.58,84.14,146.11Zm7.49,36.66c-2.6-9.87,4-20.26,14.57-23,10.1-2.66,21.2,3,23.81,12.92s-4.25,20.32-14.57,23C104.89,198.48,94.24,192.65,91.63,182.77Z"/></g><path class="cls-10" d="M97.76,187.39s5.52-.75,7.1-.75,9.06,1.48,6.7,2.61-5.91,0-5.91,0a10.47,10.47,0,0,1,4,3.11c1.56,2.11,5.13,3.51,5.13,3.51s-7.52,2.34-11.46,2-9.47-7.47-9.47-7.47Z"/><path class="cls-18" d="M42,134s-3.51,2.71,0,12.83,7.77,20.95,12.24,25.66S69.1,183.06,69.1,183.06s-.71-8.24,0-9.65A7.92,7.92,0,0,1,71,171.05l-.47-1.64a59.88,59.88,0,0,1-8.71-10.83c-3.53-5.89-8.71-15.3-10.82-20S45.52,132.22,42,134Z"/><path class="cls-19" d="M77.81,176.47s0-3.53-2.12-5.18-4.94-3.3-7.06-2.59-5.18,7.06-4.71,10.12,4.94,5.88,7.06,5.88S77.81,176.47,77.81,176.47Z"/><path class="cls-10" d="M97.76,187.39s-12.42-7.63-17.83-10.69-7.3-5.41-10.36-1.65-1.88,5.89,3.29,8.71c3.52,1.92,21,6.62,21,6.62Z"/><ellipse class="cls-4" cx="223.56" cy="314.66" rx="53.81" ry="10.86"/><path class="cls-7" d="M184.36,191.49l1,12-5.5,53.5,9.5,47.5s-9.5,10.5-7.5,13,13.5-12,13.5-12l-1.5-47,16-44,22,43,21,46.5s3,10.5,8,11-4-13-4-13l-12-49-19.5-70S200.36,193.49,184.36,191.49Z"/><path class="cls-24" d="M225.36,183s-25,10.5-41,8.5l.24,2.83c4.12,1.88,14.75,6.15,22.26,4.17,7-1.83,15.53-8.22,19.61-11.51Z"/><polygon class="cls-25" points="201.3 195.74 202.41 199.38 208.88 198.27 208.09 194.8 201.3 195.74"/><polyline class="cls-7" points="218.51 194.32 217.25 189.11 218.35 188.32 220.41 193.85"/><polyline class="cls-7" points="188.83 196.69 188.19 192.11 189.93 192.43 190.56 197.48"/><path class="cls-10" d="M215.86,116.49l25.24,12.84a3.38,3.38,0,0,0,4.65-1.72L257.86,98l7,2-11.5,40a6.86,6.86,0,0,1-8.81,5l-25.69-6Z"/><path class="cls-5" d="M241.77,129.59a3.7,3.7,0,0,1-.67-.26l-25.24-12.84,3,22.5,20.23,4.7Z"/><path class="cls-5" d="M186.36,119l-19,11,17,61.5s12,6,22,4,19-12.5,19-12.5l-9.5-66.5-23.5,1Z"/><path class="cls-10" d="M178.21,102.88s-4.35-4.68-5-1.33,4,6,5.69,6.35S178.21,102.88,178.21,102.88Z"/><path class="cls-10" d="M198.13,101.52s.89-6.33,3.35-4,.15,7.24-1,8.47S198.13,101.52,198.13,101.52Z"/><path class="cls-9" d="M182.83,112.5,184.91,124l3.4,2.58a7,7,0,0,0,10.31-2l1.68-2.87-2.72-11.51Z"/><path class="cls-10" d="M186.25,83.14s-4.79-1-8.61,5c-3.06,4.81.53,18.72,2.08,24.08a4.94,4.94,0,0,0,2.62,3.07l6.59,3.15a4.93,4.93,0,0,0,6.33-1.86l3.75-6.06a4.9,4.9,0,0,0,.66-3.52l-3.12-16.37a9.24,9.24,0,0,0-7.94-7.49A10.34,10.34,0,0,0,186.25,83.14Z"/><path class="cls-7" d="M190.75,109.66c.19.81,0,1.56-.46,1.67s-1-.47-1.16-1.28,0-1.56.45-1.67S190.55,108.85,190.75,109.66Z"/><path class="cls-7" d="M178.21,102.88a1.66,1.66,0,0,0,1.34-2c-.33-1.68-1.67-4.35-1-7.7s4.68-5.36,4.68-5.36.67,1.34,5,3a21.83,21.83,0,0,0,7,1.67s0,4.35,1,5.69,2.67,3.68,3,1.34S198,89.83,198,89.83s2.34,0,1-4.35-9.7-6.36-15.73-6.36-13,9.37-11,13a30.16,30.16,0,0,1,2.68,6.36S177.21,103.55,178.21,102.88Z"/><path class="cls-26" d="M208.89,103l1.56-6.07c8-31.24,47.91-22.45,53.62-44.7,2.48-9.67-3.78-18-15.47-21-12.81-3.29-22.69,1.6-25.22,11.49l-.64,2.48c-.63,2.47-2.27,3.25-4.74,2.61l-23.82-7.06c-2.25-.58-3.53-2.1-3.13-3.68l.63-2.47c7-27.2,33.34-40.32,65-32.2,31,8,46.53,30.62,39.79,56.91-9.57,37.32-49.86,27.23-55.1,47.68l-1,4c-.63,2.47-2.33,3.47-4.8,2.84l-23.83-6.11C209.26,107.12,208.26,105.42,208.89,103Zm-11.3,35.67c2.54-9.89,13.38-15.74,23.94-13,10.12,2.59,17,13,14.5,22.88s-13.6,15.68-23.94,13C201.52,158.79,195.06,148.51,197.59,138.62Z"/><path class="cls-18" d="M208.89,106l1.56-6.07c8-31.24,47.91-22.45,53.62-44.7,2.48-9.67-3.78-18-15.47-21-12.81-3.29-22.69,1.6-25.22,11.49l-.64,2.48c-.63,2.47-2.27,3.25-4.74,2.61l-23.82-7.06c-2.25-.58-3.53-2.1-3.13-3.68l.63-2.47c7-27.2,33.34-40.32,65-32.2,31,8,46.53,30.62,39.79,56.91-9.57,37.32-49.86,27.23-55.1,47.68l-1,4c-.63,2.47-2.33,3.47-4.8,2.84l-23.83-6.11C209.26,110.17,208.26,108.47,208.89,106Zm-11.3,35.67c2.54-9.89,13.38-15.74,23.94-13,10.12,2.59,17,13,14.5,22.88s-13.6,15.68-23.94,13C201.52,161.84,195.06,151.56,197.59,141.67Z"/><path class="cls-10" d="M264.86,100l8.5-8.5,2-14.5s-1,0-4,2-6,9.5-6,9.5-4.5,4-6,5.5a6.34,6.34,0,0,0-1.5,4Z"/><polygon class="cls-10" points="196.36 156.49 210.36 152.99 218.86 154.49 217.86 156.99 210.86 156.99 217.36 161.49 224.86 163.49 222.36 165.99 209.86 166.99 198.86 161.49 196.36 156.49"/><path class="cls-10" d="M167.36,130,152.59,166.3a3.73,3.73,0,0,0,4.31,5l42.44-9.73-3-5.12-25,.5,2-6Z"/><path class="cls-5" d="M171.36,157l2-6-6-21-9.49,23.32C166.63,152.28,171.36,157,171.36,157Z"/><ellipse class="cls-7" cx="184.08" cy="102" rx="0.73" ry="1.32" transform="translate(-14.66 32.77) rotate(-9.79)"/><path class="cls-7" d="M192.33,100.55c.12.72-.1,1.36-.49,1.43s-.82-.46-.94-1.18.09-1.36.49-1.43S192.2,99.83,192.33,100.55Z"/><path class="cls-27" d="M181.77,97.69s.39-1.45,2.77-1.45"/><path class="cls-27" d="M189.62,97.84s1.08-2.25,2.94-1.54"/><polyline class="cls-20" points="188.51 98.83 189.96 105.3 188.24 105.7"/><path class="cls-5" d="M195.36,305.49c-5,1-6-1-6-1s-9.5,10.5-7.5,13S195.36,305.49,195.36,305.49Z"/><path class="cls-5" d="M253.05,304.58c.72,2.22,3.53,10,7.81,10.41,5,.5-4-13-4-13A6.05,6.05,0,0,1,253.05,304.58Z"/></g></g></svg>