<svg id="Flat" enable-background="new 0 0 512 512" height="512" viewBox="0 0 512 512" width="512" xmlns="http://www.w3.org/2000/svg"><circle cx="256" cy="176" fill="#ffd642" r="160"/><circle cx="256" cy="176" fill="#fffefa" r="120"/><path d="m256 304c-70.58 0-128-57.42-128-128s57.42-128 128-128 128 57.42 128 128c0 24.253-6.815 47.861-19.709 68.272-.119.188-.246.371-.379.549l-12.083 16c-.134.177-.275.349-.423.514-24.269 27.114-59.043 42.665-95.406 42.665zm0-240c-61.757 0-112 50.243-112 112s50.243 112 112 112c31.709 0 62.038-13.515 83.265-37.092l11.673-15.458c11.163-17.786 17.062-38.337 17.062-59.45 0-61.757-50.243-112-112-112z" fill="#ffe68c"/><path d="m184 416-40-8-28.284-28.284c-7.502-7.502-17.676-11.716-28.285-11.716h-23.431c-5.122-5.122-12.07-8-19.314-8h-28.686v16l88 88 144 32 120-24v-88l-.402-.402c-21.869-21.869-57.327-21.869-79.196 0l-8.402 8.402h-36.919c-16.356 0-35.081 16-35.081 16z" fill="#ffbeb5"/><path d="m184 416-40-8-28.284-28.284c-7.502-7.502-17.676-11.716-28.285-11.716h-23.431c-5.122-5.122-12.07-8-19.314-8h-28.686v16l88 88 144 32 120-24v-88l-.402-.402c-21.869-21.869-57.327-21.869-79.196 0l-8.402 8.402h-36.919c-16.356 0-35.081 16-35.081 16z" fill="#ffbeb5"/><path d="m87.431 368h-23.431l56 56 40 16h48v-32l-24 8-40-8-28.284-28.284c-7.502-7.502-17.676-11.716-28.285-11.716z" fill="#e6aca3"/><path d="m200 112v16h56c10.43 0 19.327 6.688 22.629 16h-62.629v16h62.629c-3.302 9.312-12.199 16-22.629 16h-37.784c-10.045 0-18.216 8.171-18.216 18.216 0 6.362 3.389 12.347 8.844 15.62l75.04 45.024 8.231-13.72-75.04-45.024c-.664-.398-1.076-1.126-1.076-1.9 0-1.222.994-2.216 2.216-2.216h37.785c19.317 0 35.48-13.764 39.196-32h16.804v-16h-16.804c-1.204-5.908-3.715-11.347-7.216-16h32.02v-16z" fill="#ffd642"/><path d="m328 168h16v16h-16z" fill="#ffd642"/><path d="m168 168h16v16h-16z" fill="#ffd642"/><g fill="#ffe68c"><path d="m448 48h16v16h-16z"/><path d="m448 80h16v16h-16z"/><path d="m432 64h16v16h-16z"/><path d="m464 64h16v16h-16z"/><path d="m48 248h16v16h-16z"/><path d="m48 280h16v16h-16z"/><path d="m32 264h16v16h-16z"/><path d="m64 264h16v16h-16z"/></g><path d="m367.598 384.402c-21.869-21.869-57.327-21.869-79.196 0l-.402.402h-70c-27.614 0-50 22.386-50 50v6h200v-56z" fill="#ffd4cf"/><path d="m352 353h64v128h-64z" fill="#f5f5f5"/><path d="m399 337h97v159h-97z" fill="#ff593f"/><path d="m440 457h32v16h-32z" fill="#fffefe"/></svg>