<svg height="512" viewBox="0 0 64 64" width="512" xmlns="http://www.w3.org/2000/svg"><g id="Socail_network" data-name="Socail network"><path d="m7 43a4 4 0 0 0 0 8h6v-8z" fill="#9bc9ff"/><path d="m26 57v-7-6-5-2h-4v20z" fill="#9bc9ff"/><path d="m13 51 9 6v-20l-3 2-6 4z" fill="#9bc9ff"/><path d="m9 59a2 2 0 0 0 4 0v-8h-4z" fill="#9bc9ff"/><path d="m43 18.5a1.5 1.5 0 0 0 -1.5-1.5h-4.5v-3a2 2 0 0 0 -2-2h-2v2a4 4 0 0 1 -4 4h-2v-2h-6v14h6v-2h2l2 1h10.5a1.5 1.5 0 0 0 0-3 1.5 1.5 0 0 0 0-3 1.5 1.5 0 0 0 0-3 1.5 1.5 0 0 0 1.5-1.5z" fill="none"/><path d="m61 27a12 12 0 0 0 -12-12 12.142 12.142 0 0 0 -1.5.1 15.979 15.979 0 0 0 -31 0 12.142 12.142 0 0 0 -1.5-.1 12 12 0 0 0 0 24h18v-2a4 4 0 0 1 4-4h16a3.992 3.992 0 0 1 3.872 3.043 11.961 11.961 0 0 0 4.128-9.043zm-18-5.5a1.5 1.5 0 0 1 -1.5 1.5 1.5 1.5 0 0 1 0 3 1.5 1.5 0 0 1 0 3h-10.5l-2-1h-2v2h-6v-14h6v2h2a4 4 0 0 0 4-4v-2h2a2 2 0 0 1 2 2v3h4.5a1.5 1.5 0 0 1 0 3 1.5 1.5 0 0 1 1.5 1.5z" fill="#9bc9ff"/><path d="m27 16h-6v14h6v-2-10z" fill="#9bc9ff"/><g fill="#1e81ce"><path d="m62 27a13.012 13.012 0 0 0 -13-13c-.25 0-.5.01-.74.02a17.008 17.008 0 0 0 -32.52 0c-.24-.01-.49-.02-.74-.02a13 13 0 0 0 0 26h.7l-3 2h-5.7a5 5 0 0 0 0 10h1v7a3 3 0 0 0 6 0v-6.13l7.45 4.96a.967.967 0 0 0 .55.17h4a1 1 0 0 0 1-1v-6.14a3.983 3.983 0 0 0 0-7.72v-3.14h5v7a5 5 0 0 0 5 5h1v5a.987.987 0 0 0 .62.92.838.838 0 0 0 .38.08 1.007 1.007 0 0 0 .71-.29l5.7-5.71h7.59a5 5 0 0 0 5-5v-10a5.9 5.9 0 0 0 -.06-.59 12.942 12.942 0 0 0 4.06-9.41zm-50 32a1 1 0 0 1 -2 0v-7h2zm0-9h-5a3 3 0 0 1 0-6h5zm9 5.13-7-4.67v-6.92l7-4.67zm4 .87h-2v-18h2zm3-9a1.984 1.984 0 0 1 -1 1.73v-3.46a1.984 1.984 0 0 1 1 1.73zm28 0a3.009 3.009 0 0 1 -3 3h-8a1.033 1.033 0 0 0 -.71.29l-4.29 4.3v-3.59a1 1 0 0 0 -1-1h-2a3.009 3.009 0 0 1 -3-3v-10a3.009 3.009 0 0 1 3-3h16a3.009 3.009 0 0 1 3 3zm-3-15h-16a5 5 0 0 0 -5 5v1h-5v-1a1 1 0 0 0 -1-1h-4a.967.967 0 0 0 -.55.17l-2.75 1.83h-3.7a11 11 0 0 1 0-22 12.118 12.118 0 0 1 1.36.08 1 1 0 0 0 1.09-.75 15.008 15.008 0 0 1 29.1 0 1 1 0 0 0 1.09.75 12.118 12.118 0 0 1 1.36-.08 10.991 10.991 0 0 1 8.2 18.32 4.98 4.98 0 0 0 -4.2-2.32z"/><path d="m43.5 20a2.5 2.5 0 0 0 -2-4h-3.5v-2a3.009 3.009 0 0 0 -3-3h-2a1 1 0 0 0 -1 1v2a3.009 3.009 0 0 1 -3 3h-1v-1a1 1 0 0 0 -1-1h-6a1 1 0 0 0 -1 1v14a1 1 0 0 0 1 1h6a1 1 0 0 0 1-1v-1h.76l1.79.89a1 1 0 0 0 .45.11h10.5a2.5 2.5 0 0 0 2-4 2.5 2.5 0 0 0 0-3 2.5 2.5 0 0 0 0-3zm-17.5 9h-4v-12h4zm15.5-8a.5.5 0 0 1 0 1 1 1 0 0 0 0 2 .5.5 0 0 1 0 1 1 1 0 0 0 0 2 .5.5 0 0 1 0 1h-10.26l-1.79-.89a1 1 0 0 0 -.45-.11h-1v-8h1a5 5 0 0 0 5-5v-1h1a1 1 0 0 1 1 1v3a1 1 0 0 0 1 1h4.5a.5.5 0 0 1 0 1 1 1 0 0 0 0 2z"/><path d="m38 37h-1a1 1 0 0 0 0 2h1a1 1 0 0 0 0-2z"/><path d="m38 41h-1a1 1 0 0 0 0 2h1a1 1 0 0 0 0-2z"/><path d="m38 45h-1a1 1 0 0 0 0 2h1a1 1 0 0 0 0-2z"/><path d="m53 37h-11a1 1 0 0 0 0 2h11a1 1 0 0 0 0-2z"/><path d="m53 41h-11a1 1 0 0 0 0 2h11a1 1 0 0 0 0-2z"/><path d="m53 45h-11a1 1 0 0 0 0 2h11a1 1 0 0 0 0-2z"/></g></g></svg>